<?xml version="1.0" encoding="iso-8859-1"?>
<!-- Generator: Adobe Illustrator 19.0.0, SVG Export Plug-In . SVG Version: 6.00 Build 0)  -->
<svg version="1.1" id="Layer_1" xmlns="http://www.w3.org/2000/svg" xmlns:xlink="http://www.w3.org/1999/xlink" x="0px" y="0px"
	 viewBox="0 0 458 458" style="enable-background:new 0 0 458 458;" xml:space="preserve">
<g>
	<g>
		<g>
			<path d="M428,41.533H30c-16.568,0-30,13.432-30,30v252c0,16.568,13.432,30,30,30h132.1l43.942,52.243
				c5.7,6.777,14.103,10.69,22.959,10.69c8.856,0,17.259-3.912,22.959-10.689l43.942-52.243H428c16.569,0,30-13.432,30-30v-252
				C458,54.965,444.569,41.533,428,41.533z M428,323.533H281.933L229,386.465l-52.932-62.932H30v-252h398V323.533z"/>
			<path d="M85.402,156.999h137c8.284,0,15-6.716,15-15s-6.716-15-15-15h-137c-8.284,0-15,6.716-15,15
				S77.118,156.999,85.402,156.999z"/>
			<path d="M71,233.999c0,8.284,6.716,15,15,15h286c8.284,0,15-6.716,15-15s-6.716-15-15-15H86
				C77.716,218.999,71,225.715,71,233.999z"/>
		</g>
	</g>
</g>
<g>
</g>
<g>
</g>
<g>
</g>
<g>
</g>
<g>
</g>
<g>
</g>
<g>
</g>
<g>
</g>
<g>
</g>
<g>
</g>
<g>
</g>
<g>
</g>
<g>
</g>
<g>
</g>
<g>
</g>
</svg>
