<svg width="196" height="58" viewBox="0 0 196 58" fill="none" xmlns="http://www.w3.org/2000/svg">
<path d="M44.7835 25.8824L41.6023 18.0128C41.4012 17.5128 41.0737 17.0869 40.6667 16.7675C41.3357 16.0084 41.7333 15.0409 41.7333 13.9947V11.444C41.7333 8.99517 39.5486 7 36.8632 7H8.13873C5.4534 7 3.26864 8.99054 3.26864 11.444V13.9947C3.26864 15.0409 3.66631 16.0084 4.3353 16.7675C3.92829 17.0869 3.60081 17.5128 3.39964 18.0128L0.218403 25.8824C-0.118432 26.711 -0.0622652 27.6368 0.363457 28.4238C0.761109 29.1552 1.43478 29.6875 2.23476 29.9051C2.36107 29.9421 2.57157 30.0069 2.85227 30.0764V49.2967C2.85227 51.3428 4.52709 53 6.59488 53H38.4071C40.4749 53 42.1497 51.3428 42.1497 49.2967V30.0532C42.2853 30.0162 42.4117 29.9838 42.5146 29.956C42.538 29.9514 42.5567 29.9468 42.5801 29.9421C43.4596 29.7616 44.2081 29.2061 44.6385 28.4191C45.0642 27.6368 45.1157 26.711 44.7835 25.8824ZM15.9093 31.4929C15.8485 31.3031 16.0309 31.1318 16.2181 31.1966L16.8777 31.4327L17.4485 31.0254C17.6122 30.9096 17.8367 31.03 17.8274 31.2244L17.8087 31.9188L18.3748 32.3308C18.5338 32.4465 18.4917 32.6965 18.2999 32.752L17.6262 32.9465L17.4064 33.6084C17.3455 33.7936 17.0929 33.8306 16.9806 33.6686L16.583 33.0946L15.8812 33.09C15.6801 33.09 15.5725 32.8631 15.6941 32.7057L16.1245 32.1549L15.9093 31.4929ZM8.7001 36.3165L9.72932 35.4277L9.57027 34.0806C9.52817 33.701 9.94451 33.4325 10.2767 33.6316L11.4509 34.326L12.6953 33.7612C13.0462 33.6038 13.4345 33.9093 13.3456 34.2843L13.0415 35.6036L13.9678 36.6035C14.2298 36.8859 14.052 37.3442 13.6638 37.3766L12.3024 37.4969L11.6287 38.6774C11.4369 39.0107 10.941 38.9829 10.7913 38.6311L10.2533 37.3858L8.91062 37.1173C8.53636 37.0433 8.41004 36.5665 8.7001 36.3165ZM36.1849 47.9033C36.1849 48.4125 35.7638 48.8291 35.2492 48.8291H26.1266C25.612 48.8291 25.191 48.4125 25.191 47.9033V44.5101C25.191 43.3158 23.9325 42.3483 22.384 42.3483C20.8355 42.3483 19.5771 43.3158 19.5771 44.5101V47.9033C19.5771 48.4125 19.156 48.8291 18.6414 48.8291H9.51879C9.00418 48.8291 8.58314 48.4125 8.58314 47.9033V43.3482C8.58314 43.0149 8.76091 42.7094 9.05096 42.5473L21.9162 35.2101C22.2062 35.0435 22.5618 35.0435 22.8518 35.2101L35.7171 42.5473C36.0071 42.714 36.1849 43.0195 36.1849 43.3482V47.9033ZM42.5801 27.3267C42.5099 27.4516 42.4117 27.5535 42.29 27.6137C42.2339 27.6229 42.1824 27.6368 42.1263 27.6553C42.0982 27.6646 39.0667 28.646 35.9697 28.1784C33.1253 27.7479 31.5347 25.4194 31.5207 25.4009C31.3148 25.0908 30.978 24.8963 30.6037 24.8732C30.2341 24.8547 29.8692 25.0121 29.6353 25.2991C28.6576 26.4841 26.4354 28.4701 22.5197 28.4701C18.5993 28.4701 16.3584 26.4749 15.3713 25.2898C15.1467 25.0213 14.8146 24.8686 14.4684 24.8686C14.4497 24.8686 14.431 24.8686 14.4123 24.8686C14.0427 24.8871 13.7012 25.0769 13.4953 25.3824C13.4813 25.4056 11.8626 27.7572 9.00888 28.1831C6.42648 28.5719 3.89086 27.9562 3.10491 27.734C3.06281 27.7155 3.02069 27.7016 2.97391 27.6924L2.79145 27.6414C2.64174 27.5813 2.51077 27.4702 2.43124 27.322C2.3751 27.2156 2.29557 26.998 2.39849 26.7388L5.5797 18.8692C5.6873 18.6053 5.94461 18.434 6.22999 18.434H11.4883C12.134 18.434 12.6579 17.9156 12.6579 17.2767C12.6579 16.6379 12.134 16.1195 11.4883 16.1195H8.14806C6.75394 16.1195 5.61714 15.1658 5.61714 13.99V11.444C5.61714 10.2728 6.75394 9.31458 8.14806 9.31458H36.8726C38.2667 9.31458 39.4035 10.2682 39.4035 11.444V13.9947C39.4035 15.1705 38.2667 16.1241 36.8726 16.1241H16.6719H16.6672C16.0216 16.1241 15.5023 16.6425 15.5023 17.2814C15.5023 17.9202 16.0263 18.4387 16.6719 18.4387H38.786C39.0761 18.4387 39.3287 18.6099 39.4363 18.8738L42.6175 26.7434C42.7157 27.0026 42.6362 27.2202 42.5801 27.3267Z" fill="url(#paint0_linear_67_217)"/>
<path d="M88.61 48.0965V48.7397C88.61 49.4789 88.0066 50.0803 87.2649 50.0803H59.3451C58.6034 50.0803 58 49.4789 58 48.7397V48.0965C58 47.3573 58.6034 46.7559 59.3451 46.7559H71.455V39.5474C71.455 38.8082 72.0584 38.2068 72.8001 38.2068H73.7345C74.4762 38.2068 75.0796 38.8082 75.0796 39.5474V46.7559H87.2649C88.0066 46.7517 88.61 47.3531 88.61 48.0965Z" fill="#848AFF"/>
<path d="M58.6075 38.2904V37.6013C58.6075 36.9331 59.102 36.3526 59.7682 36.2732C65.6221 35.5841 70.8641 29.7455 72.6618 22.3741C72.8294 21.685 73.4998 21.2423 74.1996 21.3634L75.2095 21.5388C75.9721 21.6725 76.4707 22.4201 76.2864 23.1718C75.8548 24.9551 75.2472 26.6549 74.5055 28.2211L86.7788 36.2356C87.4074 36.6491 87.5792 37.4927 87.1518 38.115L86.7411 38.7123C86.3221 39.322 85.4924 39.4807 84.8806 39.0673L72.9257 31.0485C69.783 35.8431 65.1821 39.0881 60.0951 39.6269C59.3031 39.7146 58.6075 39.0881 58.6075 38.2904Z" fill="#848AFF"/>
<path d="M104.613 36.1311H94.9415C94.1998 36.1311 93.5964 35.5297 93.5964 34.7905V23.0923C93.5964 22.3531 94.1998 21.7517 94.9415 21.7517H110.948C111.69 21.7517 112.294 22.3531 112.294 23.0923V23.4139C112.294 24.1531 111.69 24.7546 110.948 24.7546H98.4949C97.7532 24.7546 97.1498 25.356 97.1498 26.0952V31.7835C97.1498 32.5227 97.7532 33.1241 98.4949 33.1241L102.874 33.2034C106.042 33.2034 110.789 32.8359 112.813 32.318C113.66 32.1009 114.481 32.744 114.481 33.6169V33.8341C114.481 34.4188 114.104 34.9408 113.542 35.1121C111.522 35.7385 108.317 36.1311 104.613 36.1311Z" fill="#848AFF"/>
<path d="M94.6356 40.6209V49.8132C94.6356 50.5524 95.239 51.1538 95.9807 51.1538H118.914C119.656 51.1538 120.259 50.5524 120.259 49.8132V40.6209C120.259 39.8817 119.656 39.2803 118.914 39.2803H95.9807C95.239 39.2803 94.6356 39.8775 94.6356 40.6209ZM115.361 48.151H99.5341C98.7924 48.151 98.189 47.5496 98.189 46.8103V43.6279C98.189 42.8887 98.7924 42.2873 99.5341 42.2873H115.361C116.102 42.2873 116.706 42.8887 116.706 43.6279V46.8103C116.706 47.5496 116.107 48.151 115.361 48.151Z" fill="#848AFF"/>
<path d="M123.222 30.66H120.259V36.2564C120.259 36.9957 119.656 37.5971 118.914 37.5971H118.051C117.309 37.5971 116.706 36.9957 116.706 36.2564V22.3406C116.706 21.6014 117.309 21 118.051 21H118.914C119.656 21 120.259 21.6014 120.259 22.3406V27.2604H123.222C123.963 27.2604 124.567 27.8618 124.567 28.6011V29.3152C124.567 30.0586 123.963 30.66 123.222 30.66Z" fill="#848AFF"/>
<path d="M132 50H134.36L136.74 42.02C137.24 40.42 137.68 38.78 138.12 37.12H138.2C138.66 38.76 139.1 40.42 139.6 42.02L141.96 50H144.42L139.56 35.28H136.86L132 50ZM134.74 45.82H141.62V44H134.74V45.82ZM146.361 50H150.321C154.721 50 157.281 47.38 157.281 42.58C157.281 37.78 154.721 35.28 150.201 35.28H146.361V50ZM148.701 48.1V37.16H150.021C153.181 37.16 154.901 38.92 154.901 42.58C154.901 46.24 153.181 48.1 150.021 48.1H148.701ZM160.346 50H162.446V42.74C162.446 41.4 162.266 39.52 162.146 38.18H162.226L163.406 41.58L165.966 48.6H167.406L169.966 41.58L171.166 38.18H171.246C171.126 39.52 170.946 41.4 170.946 42.74V50H173.086V35.28H170.406L167.746 42.74C167.426 43.7 167.146 44.7 166.786 45.7H166.706C166.366 44.7 166.066 43.7 165.706 42.74L163.026 35.28H160.346V50ZM176.947 50H179.287V35.28H176.947V50ZM183.119 50H185.339V43.08C185.339 41.46 185.139 39.78 185.039 38.24H185.139L186.679 41.34L191.539 50H193.939V35.28H191.719V42.16C191.719 43.74 191.899 45.54 192.039 47.04H191.939L190.399 43.94L185.499 35.28H183.119V50Z" fill="#848AFF"/>
<defs>
<linearGradient id="paint0_linear_67_217" x1="22.5006" y1="7" x2="22.5006" y2="52.9966" gradientUnits="userSpaceOnUse">
<stop stop-color="#7683FF"/>
<stop offset="0.2651" stop-color="#7A85FF"/>
<stop offset="0.5398" stop-color="#878CFF"/>
<stop offset="0.8179" stop-color="#9B97FF"/>
<stop offset="1" stop-color="#ADA0FF"/>
</linearGradient>
</defs>
</svg>
